<svg width="1920" height="3000" viewBox="0 0 1920 3000" fill="none" xmlns="http://www.w3.org/2000/svg">
<g filter="url(#filter0_f_28_141)">
<ellipse cx="43.5" cy="90" rx="240.5" ry="243" fill="#D196FF"/>
</g>
<g filter="url(#filter1_f_28_141)">
<ellipse cx="1869.5" cy="1073" rx="240.5" ry="243" fill="#D196FF"/>
</g>
<g filter="url(#filter2_f_28_141)">
<ellipse cx="1803.5" cy="2180.5" rx="453.5" ry="458.5" fill="#8F60A9"/>
</g>
<g filter="url(#filter3_f_28_141)">
<ellipse cx="109.5" cy="2541.5" rx="453.5" ry="458.5" fill="#D196FF"/>
</g>
<g filter="url(#filter4_f_28_141)">
<ellipse cx="567" cy="1257" rx="386" ry="368" fill="#ED78C4"/>
</g>
<g filter="url(#filter5_d_28_141)">
<rect x="-90" y="59.2263" width="181" height="163.774" rx="20" fill="url(#paint0_linear_28_141)"/>
</g>
<g filter="url(#filter6_d_28_141)">
<rect y="-54" width="181" height="163.774" rx="20" fill="url(#paint1_linear_28_141)"/>
</g>
<g filter="url(#filter7_d_28_141)">
<rect x="1932" y="1177" width="181" height="163.774" rx="20" transform="rotate(-180 1932 1177)" fill="url(#paint2_linear_28_141)"/>
</g>
<g filter="url(#filter8_d_28_141)">
<rect x="2022" y="1063.77" width="181" height="163.774" rx="20" transform="rotate(-180 2022 1063.77)" fill="url(#paint3_linear_28_141)"/>
</g>
<g filter="url(#filter9_d_28_141)">
<path d="M1804.8 96.8711C1805.58 95.7321 1805.29 94.17 1804.15 93.3821C1803.01 92.5942 1801.46 92.8787 1800.69 94.0177L1804.8 96.8711ZM1702.11 247.191L1804.8 96.8711L1800.69 94.0177L1698 244.337L1702.11 247.191Z" fill="#EFBEDE"/>
<path d="M1886.81 161.863C1887.92 162.692 1889.48 162.465 1890.3 161.356C1891.12 160.247 1890.89 158.675 1889.78 157.846L1886.81 161.863ZM1801.2 97.6836L1886.81 161.863L1889.78 157.846L1804.17 93.6665L1801.2 97.6836Z" fill="#EFBEDE"/>
<path d="M1990.98 9.43456L1965.03 21.8205L1988.77 38.2946L1990.98 9.43456ZM1886.24 158.327C1885.46 159.466 1885.75 161.028 1886.89 161.816C1888.02 162.604 1889.57 162.319 1890.35 161.18L1886.24 158.327ZM1976.25 26.5685L1886.24 158.327L1890.35 161.18L1980.36 29.422L1976.25 26.5685Z" fill="#EFBEDE"/>
<path d="M1816.81 139.32C1817.59 138.182 1817.3 136.619 1816.17 135.831C1815.03 135.044 1813.48 135.328 1812.7 136.467L1816.81 139.32ZM1714.13 289.64L1816.81 139.32L1812.7 136.467L1710.01 286.787L1714.13 289.64Z" fill="#EFBEDE"/>
<path d="M1898.83 204.312C1899.93 205.142 1901.5 204.915 1902.31 203.805C1903.13 202.696 1902.9 201.125 1901.8 200.295L1898.83 204.312ZM1813.22 140.133L1898.83 204.312L1901.8 200.295L1816.19 136.116L1813.22 140.133Z" fill="#EFBEDE"/>
<path d="M2003 51.884L1977.04 64.2699L2000.78 80.744L2003 51.884ZM1898.26 200.776C1897.48 201.915 1897.77 203.477 1898.9 204.265C1900.04 205.053 1901.59 204.769 1902.37 203.63L1898.26 200.776ZM1988.26 69.0179L1898.26 200.776L1902.37 203.63L1992.38 71.8714L1988.26 69.0179Z" fill="#EFBEDE"/>
<path d="M1792.78 58.4645C1793.56 57.3255 1793.27 55.7634 1792.13 54.9755C1791 54.1875 1789.45 54.4721 1788.67 55.6111L1792.78 58.4645ZM1690.09 208.784L1792.78 58.4645L1788.67 55.6111L1685.98 205.931L1690.09 208.784Z" fill="#EFBEDE"/>
<path d="M1874.8 123.456C1875.9 124.286 1877.46 124.059 1878.28 122.949C1879.1 121.84 1878.87 120.269 1877.76 119.439L1874.8 123.456ZM1789.19 59.277L1874.8 123.456L1877.76 119.439L1792.15 55.2599L1789.19 59.277Z" fill="#EFBEDE"/>
<path d="M1978.97 -28.9721L1953.01 -16.5861L1976.75 -0.111995L1978.97 -28.9721ZM1874.23 119.92C1873.45 121.059 1873.74 122.621 1874.87 123.409C1876.01 124.197 1877.56 123.913 1878.34 122.774L1874.23 119.92ZM1964.23 -11.8381L1874.23 119.92L1878.34 122.774L1968.35 -8.98467L1964.23 -11.8381Z" fill="#EFBEDE"/>
<path d="M1774.76 -20.3701C1775.54 -21.5091 1775.25 -23.0712 1774.11 -23.8591C1772.98 -24.6471 1771.42 -24.3625 1770.65 -23.2235L1774.76 -20.3701ZM1672.07 129.949L1774.76 -20.3701L1770.65 -23.2235L1667.96 127.096L1672.07 129.949Z" fill="#EFBEDE"/>
<path d="M1856.77 44.6218C1857.88 45.451 1859.44 45.224 1860.26 44.1147C1861.08 43.0054 1860.85 41.4339 1859.74 40.6047L1856.77 44.6218ZM1771.16 -19.5577L1856.77 44.6218L1859.74 40.6047L1774.13 -23.5747L1771.16 -19.5577Z" fill="#EFBEDE"/>
<path d="M1960.95 -107.807L1934.99 -95.4207L1958.73 -78.9466L1960.95 -107.807ZM1856.2 41.0857C1855.42 42.2246 1855.71 43.7867 1856.85 44.5747C1857.98 45.3626 1859.54 45.078 1860.31 43.9391L1856.2 41.0857ZM1946.21 -90.6727L1856.2 41.0857L1860.31 43.9391L1950.32 -87.8192L1946.21 -90.6727Z" fill="#EFBEDE"/>
<path d="M1786.77 22.0793C1787.55 20.9403 1787.26 19.3782 1786.13 18.5903C1784.99 17.8023 1783.44 18.0869 1782.66 19.2259L1786.77 22.0793ZM1684.09 172.399L1786.77 22.0793L1782.66 19.2259L1679.98 169.545L1684.09 172.399Z" fill="#EFBEDE"/>
<path d="M1868.79 87.0712C1869.9 87.9004 1871.46 87.6734 1872.28 86.5641C1873.1 85.4548 1872.86 83.8833 1871.76 83.0541L1868.79 87.0712ZM1783.18 22.8917L1868.79 87.0712L1871.76 83.0541L1786.15 18.8747L1783.18 22.8917Z" fill="#EFBEDE"/>
<path d="M1972.96 -65.3572L1947 -52.9713L1970.74 -36.4972L1972.96 -65.3572ZM1868.22 83.5351C1867.44 84.674 1867.73 86.2361 1868.86 87.0241C1870 87.812 1871.55 87.5274 1872.33 86.3885L1868.22 83.5351ZM1958.23 -48.2233L1868.22 83.5351L1872.33 86.3885L1962.34 -45.3698L1958.23 -48.2233Z" fill="#EFBEDE"/>
<path d="M1762.74 -58.7767C1763.52 -59.9157 1763.23 -61.4778 1762.1 -62.2657C1760.96 -63.0537 1759.41 -62.7691 1758.63 -61.6301L1762.74 -58.7767ZM1660.06 91.5428L1762.74 -58.7767L1758.63 -61.6301L1655.94 88.6895L1660.06 91.5428Z" fill="#EFBEDE"/>
<path d="M1844.76 6.21517C1845.87 7.04439 1847.43 6.81735 1848.25 5.70806C1849.06 4.59877 1848.83 3.02729 1847.73 2.19808L1844.76 6.21517ZM1759.15 -57.9643L1844.76 6.21517L1847.73 2.19808L1762.12 -61.9814L1759.15 -57.9643Z" fill="#EFBEDE"/>
<path d="M1948.93 -146.213L1922.97 -133.827L1946.71 -117.353L1948.93 -146.213ZM1844.19 2.67905C1843.41 3.81802 1843.7 5.3801 1844.83 6.16805C1845.97 6.956 1847.52 6.67143 1848.3 5.53245L1844.19 2.67905ZM1934.2 -129.079L1844.19 2.67905L1848.3 5.53245L1938.31 -126.226L1934.2 -129.079Z" fill="#EFBEDE"/>
</g>
<g filter="url(#filter10_d_28_141)">
<path d="M56.7972 986.871C57.5753 985.732 57.2856 984.17 56.1502 983.382C55.0147 982.594 53.4635 982.879 52.6855 984.018L56.7972 986.871ZM-45.89 1137.19L56.7972 986.871L52.6855 984.018L-50.0018 1134.34L-45.89 1137.19Z" fill="#EFBEDE"/>
<path d="M138.813 1051.86C139.919 1052.69 141.48 1052.47 142.299 1051.36C143.118 1050.25 142.886 1048.68 141.78 1047.85L138.813 1051.86ZM53.2028 987.684L138.813 1051.86L141.78 1047.85L56.1695 983.666L53.2028 987.684Z" fill="#EFBEDE"/>
<path d="M242.984 899.435L217.027 911.82L240.766 928.295L242.984 899.435ZM138.241 1048.33C137.462 1049.47 137.752 1051.03 138.888 1051.82C140.023 1052.6 141.574 1052.32 142.352 1051.18L138.241 1048.33ZM228.249 916.569L138.241 1048.33L142.352 1051.18L232.361 919.422L228.249 916.569Z" fill="#EFBEDE"/>
<path d="M68.8127 1029.32C69.5908 1028.18 69.3011 1026.62 68.1657 1025.83C67.0302 1025.04 65.479 1025.33 64.701 1026.47L68.8127 1029.32ZM-33.8745 1179.64L68.8127 1029.32L64.701 1026.47L-37.9863 1176.79L-33.8745 1179.64Z" fill="#EFBEDE"/>
<path d="M150.829 1094.31C151.935 1095.14 153.495 1094.91 154.315 1093.81C155.134 1092.7 154.901 1091.12 153.795 1090.3L150.829 1094.31ZM65.2183 1030.13L150.829 1094.31L153.795 1090.3L68.185 1026.12L65.2183 1030.13Z" fill="#EFBEDE"/>
<path d="M255 941.884L229.042 954.27L252.781 970.744L255 941.884ZM150.256 1090.78C149.478 1091.92 149.768 1093.48 150.903 1094.27C152.038 1095.05 153.59 1094.77 154.368 1093.63L150.256 1090.78ZM240.265 959.018L150.256 1090.78L154.368 1093.63L244.376 961.871L240.265 959.018Z" fill="#EFBEDE"/>
<path d="M44.7819 948.464C45.5599 947.325 45.2702 945.763 44.1348 944.975C42.9994 944.188 41.4482 944.472 40.6701 945.611L44.7819 948.464ZM-57.9054 1098.78L44.7819 948.464L40.6701 945.611L-62.0172 1095.93L-57.9054 1098.78Z" fill="#EFBEDE"/>
<path d="M126.798 1013.46C127.904 1014.29 129.465 1014.06 130.284 1012.95C131.103 1011.84 130.87 1010.27 129.764 1009.44L126.798 1013.46ZM41.1874 949.277L126.798 1013.46L129.764 1009.44L44.1541 945.26L41.1874 949.277Z" fill="#EFBEDE"/>
<path d="M230.969 861.028L205.011 873.414L228.75 889.888L230.969 861.028ZM126.225 1009.92C125.447 1011.06 125.737 1012.62 126.872 1013.41C128.008 1014.2 129.559 1013.91 130.337 1012.77L126.225 1009.92ZM216.234 878.162L126.225 1009.92L130.337 1012.77L220.346 881.015L216.234 878.162Z" fill="#EFBEDE"/>
<path d="M26.7587 869.63C27.5367 868.491 27.247 866.929 26.1116 866.141C24.9762 865.353 23.425 865.638 22.6469 866.776L26.7587 869.63ZM-75.9286 1019.95L26.7587 869.63L22.6469 866.776L-80.0404 1017.1L-75.9286 1019.95Z" fill="#EFBEDE"/>
<path d="M108.774 934.622C109.881 935.451 111.441 935.224 112.261 934.115C113.08 933.005 112.847 931.434 111.741 930.605L108.774 934.622ZM23.1643 870.442L108.774 934.622L111.741 930.605L26.1309 866.425L23.1643 870.442Z" fill="#EFBEDE"/>
<path d="M212.946 782.193L186.988 794.579L210.727 811.053L212.946 782.193ZM108.202 931.086C107.424 932.225 107.714 933.787 108.849 934.575C109.984 935.363 111.536 935.078 112.314 933.939L108.202 931.086ZM198.211 799.327L108.202 931.086L112.314 933.939L202.322 802.181L198.211 799.327Z" fill="#EFBEDE"/>
<path d="M38.7741 912.079C39.5521 910.94 39.2624 909.378 38.127 908.59C36.9915 907.802 35.4403 908.087 34.6623 909.226L38.7741 912.079ZM-63.9132 1062.4L38.7741 912.079L34.6623 909.226L-68.025 1059.55L-63.9132 1062.4Z" fill="#EFBEDE"/>
<path d="M120.79 977.071C121.896 977.9 123.457 977.673 124.276 976.564C125.095 975.455 124.863 973.883 123.757 973.054L120.79 977.071ZM35.1796 912.892L120.79 977.071L123.757 973.054L38.1463 908.875L35.1796 912.892Z" fill="#EFBEDE"/>
<path d="M224.961 824.643L199.003 837.029L222.743 853.503L224.961 824.643ZM120.217 973.535C119.439 974.674 119.729 976.236 120.864 977.024C122 977.812 123.551 977.527 124.329 976.388L120.217 973.535ZM210.226 841.777L120.217 973.535L124.329 976.388L214.338 844.63L210.226 841.777Z" fill="#EFBEDE"/>
<path d="M14.7432 831.223C15.5212 830.084 15.2315 828.522 14.0961 827.734C12.9607 826.946 11.4095 827.231 10.6314 828.37L14.7432 831.223ZM-87.9441 981.543L14.7432 831.223L10.6314 828.37L-92.0559 978.689L-87.9441 981.543Z" fill="#EFBEDE"/>
<path d="M96.759 896.215C97.8651 897.044 99.4259 896.817 100.245 895.708C101.064 894.599 100.832 893.027 99.7256 892.198L96.759 896.215ZM11.1487 832.036L96.759 896.215L99.7256 892.198L14.1154 828.019L11.1487 832.036Z" fill="#EFBEDE"/>
<path d="M200.93 743.787L174.973 756.173L198.712 772.647L200.93 743.787ZM96.1864 892.679C95.4084 893.818 95.698 895.38 96.8335 896.168C97.9689 896.956 99.5201 896.671 100.298 895.532L96.1864 892.679ZM186.195 760.921L96.1864 892.679L100.298 895.532L190.307 763.774L186.195 760.921Z" fill="#EFBEDE"/>
</g>
<defs>
<filter id="filter0_f_28_141" x="-397" y="-353" width="881" height="886" filterUnits="userSpaceOnUse" color-interpolation-filters="sRGB">
<feFlood flood-opacity="0" result="BackgroundImageFix"/>
<feBlend mode="normal" in="SourceGraphic" in2="BackgroundImageFix" result="shape"/>
<feGaussianBlur stdDeviation="100" result="effect1_foregroundBlur_28_141"/>
</filter>
<filter id="filter1_f_28_141" x="1429" y="630" width="881" height="886" filterUnits="userSpaceOnUse" color-interpolation-filters="sRGB">
<feFlood flood-opacity="0" result="BackgroundImageFix"/>
<feBlend mode="normal" in="SourceGraphic" in2="BackgroundImageFix" result="shape"/>
<feGaussianBlur stdDeviation="100" result="effect1_foregroundBlur_28_141"/>
</filter>
<filter id="filter2_f_28_141" x="650" y="1022" width="2307" height="2317" filterUnits="userSpaceOnUse" color-interpolation-filters="sRGB">
<feFlood flood-opacity="0" result="BackgroundImageFix"/>
<feBlend mode="normal" in="SourceGraphic" in2="BackgroundImageFix" result="shape"/>
<feGaussianBlur stdDeviation="350" result="effect1_foregroundBlur_28_141"/>
</filter>
<filter id="filter3_f_28_141" x="-1044" y="1383" width="2307" height="2317" filterUnits="userSpaceOnUse" color-interpolation-filters="sRGB">
<feFlood flood-opacity="0" result="BackgroundImageFix"/>
<feBlend mode="normal" in="SourceGraphic" in2="BackgroundImageFix" result="shape"/>
<feGaussianBlur stdDeviation="350" result="effect1_foregroundBlur_28_141"/>
</filter>
<filter id="filter4_f_28_141" x="-519" y="189" width="2172" height="2136" filterUnits="userSpaceOnUse" color-interpolation-filters="sRGB">
<feFlood flood-opacity="0" result="BackgroundImageFix"/>
<feBlend mode="normal" in="SourceGraphic" in2="BackgroundImageFix" result="shape"/>
<feGaussianBlur stdDeviation="350" result="effect1_foregroundBlur_28_141"/>
</filter>
<filter id="filter5_d_28_141" x="-115" y="22.2263" width="249" height="231.774" filterUnits="userSpaceOnUse" color-interpolation-filters="sRGB">
<feFlood flood-opacity="0" result="BackgroundImageFix"/>
<feColorMatrix in="SourceAlpha" type="matrix" values="0 0 0 0 0 0 0 0 0 0 0 0 0 0 0 0 0 0 127 0" result="hardAlpha"/>
<feMorphology radius="1" operator="dilate" in="SourceAlpha" result="effect1_dropShadow_28_141"/>
<feOffset dx="9" dy="-3"/>
<feGaussianBlur stdDeviation="16.5"/>
<feComposite in2="hardAlpha" operator="out"/>
<feColorMatrix type="matrix" values="0 0 0 0 0.819519 0 0 0 0 0.589815 0 0 0 0 1 0 0 0 1 0"/>
<feBlend mode="normal" in2="BackgroundImageFix" result="effect1_dropShadow_28_141"/>
<feBlend mode="normal" in="SourceGraphic" in2="effect1_dropShadow_28_141" result="shape"/>
</filter>
<filter id="filter6_d_28_141" x="-25" y="-91" width="249" height="231.774" filterUnits="userSpaceOnUse" color-interpolation-filters="sRGB">
<feFlood flood-opacity="0" result="BackgroundImageFix"/>
<feColorMatrix in="SourceAlpha" type="matrix" values="0 0 0 0 0 0 0 0 0 0 0 0 0 0 0 0 0 0 127 0" result="hardAlpha"/>
<feMorphology radius="1" operator="dilate" in="SourceAlpha" result="effect1_dropShadow_28_141"/>
<feOffset dx="9" dy="-3"/>
<feGaussianBlur stdDeviation="16.5"/>
<feComposite in2="hardAlpha" operator="out"/>
<feColorMatrix type="matrix" values="0 0 0 0 0.819519 0 0 0 0 0.589815 0 0 0 0 1 0 0 0 1 0"/>
<feBlend mode="normal" in2="BackgroundImageFix" result="effect1_dropShadow_28_141"/>
<feBlend mode="normal" in="SourceGraphic" in2="effect1_dropShadow_28_141" result="shape"/>
</filter>
<filter id="filter7_d_28_141" x="1726" y="976.226" width="249" height="231.774" filterUnits="userSpaceOnUse" color-interpolation-filters="sRGB">
<feFlood flood-opacity="0" result="BackgroundImageFix"/>
<feColorMatrix in="SourceAlpha" type="matrix" values="0 0 0 0 0 0 0 0 0 0 0 0 0 0 0 0 0 0 127 0" result="hardAlpha"/>
<feMorphology radius="1" operator="dilate" in="SourceAlpha" result="effect1_dropShadow_28_141"/>
<feOffset dx="9" dy="-3"/>
<feGaussianBlur stdDeviation="16.5"/>
<feComposite in2="hardAlpha" operator="out"/>
<feColorMatrix type="matrix" values="0 0 0 0 0.819519 0 0 0 0 0.589815 0 0 0 0 1 0 0 0 1 0"/>
<feBlend mode="normal" in2="BackgroundImageFix" result="effect1_dropShadow_28_141"/>
<feBlend mode="normal" in="SourceGraphic" in2="effect1_dropShadow_28_141" result="shape"/>
</filter>
<filter id="filter8_d_28_141" x="1816" y="863" width="249" height="231.774" filterUnits="userSpaceOnUse" color-interpolation-filters="sRGB">
<feFlood flood-opacity="0" result="BackgroundImageFix"/>
<feColorMatrix in="SourceAlpha" type="matrix" values="0 0 0 0 0 0 0 0 0 0 0 0 0 0 0 0 0 0 127 0" result="hardAlpha"/>
<feMorphology radius="1" operator="dilate" in="SourceAlpha" result="effect1_dropShadow_28_141"/>
<feOffset dx="9" dy="-3"/>
<feGaussianBlur stdDeviation="16.5"/>
<feComposite in2="hardAlpha" operator="out"/>
<feColorMatrix type="matrix" values="0 0 0 0 0.819519 0 0 0 0 0.589815 0 0 0 0 1 0 0 0 1 0"/>
<feBlend mode="normal" in2="BackgroundImageFix" result="effect1_dropShadow_28_141"/>
<feBlend mode="normal" in="SourceGraphic" in2="effect1_dropShadow_28_141" result="shape"/>
</filter>
<filter id="filter9_d_28_141" x="1643.94" y="-165" width="371.056" height="480" filterUnits="userSpaceOnUse" color-interpolation-filters="sRGB">
<feFlood flood-opacity="0" result="BackgroundImageFix"/>
<feColorMatrix in="SourceAlpha" type="matrix" values="0 0 0 0 0 0 0 0 0 0 0 0 0 0 0 0 0 0 127 0" result="hardAlpha"/>
<feOffset dy="4"/>
<feGaussianBlur stdDeviation="6"/>
<feComposite in2="hardAlpha" operator="out"/>
<feColorMatrix type="matrix" values="0 0 0 0 0.937255 0 0 0 0 0.745098 0 0 0 0 0.870588 0 0 0 1 0"/>
<feBlend mode="normal" in2="BackgroundImageFix" result="effect1_dropShadow_28_141"/>
<feBlend mode="normal" in="SourceGraphic" in2="effect1_dropShadow_28_141" result="shape"/>
</filter>
<filter id="filter10_d_28_141" x="-104.056" y="725" width="371.056" height="480" filterUnits="userSpaceOnUse" color-interpolation-filters="sRGB">
<feFlood flood-opacity="0" result="BackgroundImageFix"/>
<feColorMatrix in="SourceAlpha" type="matrix" values="0 0 0 0 0 0 0 0 0 0 0 0 0 0 0 0 0 0 127 0" result="hardAlpha"/>
<feOffset dy="4"/>
<feGaussianBlur stdDeviation="6"/>
<feComposite in2="hardAlpha" operator="out"/>
<feColorMatrix type="matrix" values="0 0 0 0 0.937255 0 0 0 0 0.745098 0 0 0 0 0.870588 0 0 0 1 0"/>
<feBlend mode="normal" in2="BackgroundImageFix" result="effect1_dropShadow_28_141"/>
<feBlend mode="normal" in="SourceGraphic" in2="effect1_dropShadow_28_141" result="shape"/>
</filter>
<linearGradient id="paint0_linear_28_141" x1="0.5" y1="59.2263" x2="0.5" y2="223" gradientUnits="userSpaceOnUse">
<stop stop-color="#EFBEDE"/>
<stop offset="1" stop-color="#ED78C4"/>
</linearGradient>
<linearGradient id="paint1_linear_28_141" x1="90.5" y1="-54" x2="90.5" y2="109.774" gradientUnits="userSpaceOnUse">
<stop stop-color="#EFBEDE"/>
<stop offset="1" stop-color="#ED78C4"/>
</linearGradient>
<linearGradient id="paint2_linear_28_141" x1="2022.5" y1="1177" x2="2022.5" y2="1340.77" gradientUnits="userSpaceOnUse">
<stop stop-color="#EFBEDE"/>
<stop offset="1" stop-color="#ED78C4"/>
</linearGradient>
<linearGradient id="paint3_linear_28_141" x1="2112.5" y1="1063.77" x2="2112.5" y2="1227.55" gradientUnits="userSpaceOnUse">
<stop stop-color="#EFBEDE"/>
<stop offset="1" stop-color="#ED78C4"/>
</linearGradient>
</defs>
</svg>
