<svg width="127" height="147" viewBox="0 0 127 147" fill="none" xmlns="http://www.w3.org/2000/svg">
<path d="M37.2168 0.325468C36.5314 0.336161 35.8549 0.481741 35.2258 0.753896C34.5967 1.02605 34.0274 1.41945 33.5504 1.91163C33.0734 2.40381 32.6979 2.98514 32.4456 3.62241C32.1932 4.25968 32.0688 4.94042 32.0795 5.62576V16.0633C32.0698 16.7548 32.1975 17.4414 32.4554 18.0831C32.7133 18.7249 33.0961 19.309 33.5817 19.8015C34.0673 20.294 34.6459 20.685 35.2839 20.952C35.922 21.2189 36.6067 21.3563 37.2983 21.3563C37.9899 21.3563 38.6746 21.2189 39.3127 20.952C39.9507 20.685 40.5293 20.294 41.0149 19.8015C41.5005 19.309 41.8833 18.7249 42.1412 18.0831C42.3991 17.4414 42.5268 16.7548 42.517 16.0633V5.62576C42.528 4.9267 42.3984 4.23256 42.1359 3.58456C41.8734 2.93655 41.4834 2.34789 40.989 1.85352C40.4946 1.35915 39.906 0.969136 39.258 0.706644C38.61 0.444153 37.9158 0.314529 37.2168 0.325468ZM16.3621 10.7834C15.3227 10.7836 14.307 11.0941 13.4451 11.6753C12.5833 12.2564 11.9147 13.0817 11.5248 14.0453C11.135 15.0089 11.0418 16.0669 11.2571 17.0838C11.4725 18.1007 11.9865 19.0302 12.7335 19.7531L23.171 30.1906C23.6519 30.6914 24.2278 31.0913 24.8652 31.3668C25.5026 31.6422 26.1885 31.7878 26.8828 31.7948C27.5771 31.8019 28.2658 31.6703 28.9086 31.4079C29.5515 31.1455 30.1355 30.7574 30.6264 30.2664C31.1174 29.7754 31.5055 29.1914 31.7679 28.5486C32.0304 27.9058 32.1619 27.217 32.1549 26.5227C32.1478 25.8284 32.0023 25.1425 31.7268 24.5052C31.4513 23.8678 31.0515 23.2918 30.5506 22.8109L20.1131 12.3734C19.6265 11.8704 19.0436 11.4705 18.3992 11.1973C17.7548 10.9241 17.062 10.7834 16.3621 10.7834ZM58.0714 10.8037C56.717 10.8414 55.4304 11.4043 54.4835 12.3734L44.046 22.8109C43.5451 23.2918 43.1453 23.8678 42.8698 24.5052C42.5943 25.1425 42.4488 25.8284 42.4417 26.5227C42.4347 27.217 42.5662 27.9058 42.8287 28.5486C43.0911 29.1914 43.4792 29.7754 43.9701 30.2664C44.4611 30.7574 45.0451 31.1455 45.688 31.4079C46.3308 31.6703 47.0195 31.8019 47.7138 31.7948C48.4081 31.7878 49.094 31.6422 49.7314 31.3668C50.3687 31.0913 50.9447 30.6914 51.4256 30.1906L61.8631 19.7531C62.6136 19.0194 63.1254 18.0765 63.3318 17.0476C63.5382 16.0186 63.4296 14.9512 63.0202 13.9849C62.6108 13.0186 61.9195 12.1981 61.0367 11.6306C60.1539 11.0631 59.1205 10.775 58.0714 10.8037ZM103.715 10.9668C100.563 11.2874 97.4841 12.5687 94.9696 14.8605C94.9281 14.9006 94.8873 14.9414 94.8473 14.9828L54.8107 58.3408C51.389 62.0464 46.5667 61.1029 44.4387 56.53C43.7934 55.1434 43.0421 53.876 42.1093 52.9411C42.1026 52.9343 42.0958 52.9275 42.0889 52.9207C37.5363 48.3741 31.9053 45.0417 26.1065 43.319C20.3078 41.5963 14.0778 41.3795 8.81942 44.481C4.02289 47.3034 1.56209 51.6975 1.56209 51.6975C0.983013 52.6234 0.708918 53.7075 0.778402 54.7973C0.847885 55.8871 1.25745 56.9277 1.94942 57.7725L21.6198 71.1559C24.4001 73.0475 25.6529 76.5095 24.7269 79.7423L23.9479 82.4621C21.6781 90.3869 19.3435 97.091 22.1171 104.854V104.854C23.0951 107.591 26.0062 111.558 28.0093 113.665L51.5275 138.398C51.5611 138.433 51.595 138.467 51.6295 138.5C62.3094 149.18 79.7956 149.176 90.4847 138.5L95.1327 133.832H92.9718C93.6605 133.834 94.3429 133.7 94.9797 133.438C95.6165 133.176 96.195 132.79 96.682 132.303L121.981 106.821H121.96C127.286 101.479 128.465 92.6509 123 86.6183C120.956 84.3642 118.079 83.5225 115.253 82.8877C115.481 79.0535 114.424 75.2204 111.523 72.3279C109.568 70.3735 106.908 69.8308 104.347 69.2089C104.951 65.0126 104.264 60.737 101.065 57.5482C100.102 56.5885 98.7049 56.7165 97.5586 56.1009L115.845 37.611L115.58 37.8556C120.531 33.4772 122.342 27.4114 120 21.5C120.141 20.2041 118.552 18.1748 117.781 17.1233C115.093 13.4737 111.067 11.382 106.875 10.9668C105.827 10.863 104.766 10.86 103.715 10.9668Z" fill="#8F60A9"/>
</svg>