<svg width="192" height="73" viewBox="0 0 192 73" fill="none" xmlns="http://www.w3.org/2000/svg">
<g id="Group 2">
<g id="Group">
<g id="Group_2">
<path id="Vector" d="M49.5662 9.54351H8.8118C7.59514 9.54351 6.60886 10.6422 6.60886 11.9974V63.5299H3.30444C2.08779 63.5299 1.1015 64.6285 1.1015 65.9838V68.4377C1.1015 69.793 2.08779 70.8916 3.30444 70.8916H49.5662C50.7829 70.8916 51.7692 69.793 51.7692 68.4377V11.9974C51.7692 10.6422 50.7829 9.54351 49.5662 9.54351Z" fill="#EFBEDE"/>
<path id="Vector_2" d="M45.1603 4.63567H4.40588C3.18923 4.63567 2.20294 5.73433 2.20294 7.0896V61.0759C2.20294 62.4312 3.18923 63.5299 4.40588 63.5299H45.1603C46.3769 63.5299 47.3632 62.4312 47.3632 61.0759V7.0896C47.3632 5.73433 46.3769 4.63567 45.1603 4.63567Z" fill="#D196FF"/>
<path id="Vector_3" d="M4.40591 4.63567H7.71033V63.5299H1.1015V8.31656C1.1015 6.28367 2.58094 4.63567 4.40591 4.63567Z" fill="#8F60A9"/>
<path id="Vector_4" d="M21.3905 51.1007L16.0594 46.8554C15.677 46.5522 15.1641 46.5522 14.7817 46.8554L9.45059 51.1007C9.11547 51.3665 8.67531 51.4021 8.30923 51.1931C7.94315 50.984 7.71216 50.5651 7.71027 50.1069V3.4087C7.71027 2.73108 8.20342 2.18174 8.81174 2.18174H22.0294C22.6377 2.18174 23.1309 2.73108 23.1309 3.4087V50.1069C23.129 50.5651 22.898 50.984 22.5319 51.1931C22.1658 51.4021 21.7256 51.3665 21.3905 51.1007Z" fill="#ED78C4"/>
<path id="Vector_5" d="M7.71027 2.18174H23.1309V8.31655H7.71027V2.18174Z" fill="#ED78C4"/>
<path id="Vector_6" d="M27.5368 30.4019H31.9427C32.551 30.4019 33.0441 29.8525 33.0441 29.1749C33.0441 28.4973 32.551 27.9479 31.9427 27.9479H27.5368C26.9285 27.9479 26.4353 28.4973 26.4353 29.1749C26.4353 29.8525 26.9285 30.4019 27.5368 30.4019ZM27.5368 25.494H38.5515C39.1598 25.494 39.653 24.9447 39.653 24.2671C39.653 23.5894 39.1598 23.0401 38.5515 23.0401H27.5368C26.9285 23.0401 26.4353 23.5894 26.4353 24.2671C26.4353 24.9447 26.9285 25.494 27.5368 25.494Z" fill="#8F60A9"/>
<path id="Vector_7" d="M49.5662 8.31655H48.4647V7.08959C48.4647 5.0567 46.9853 3.4087 45.1603 3.4087H24.0341C23.5684 1.94159 22.3249 0.959149 20.9279 0.954781H9.91324C8.5163 0.959149 7.27274 1.94159 6.80709 3.4087H4.40588C1.97258 3.4087 0 5.60602 0 8.31655V67.2107C0 69.9213 1.97258 72.1186 4.40588 72.1186H49.5662C51.3911 72.1186 52.8706 70.4706 52.8706 68.4377V11.9974C52.8706 9.96455 51.3911 8.31655 49.5662 8.31655ZM8.81176 4.63567C8.81176 3.95804 9.30492 3.4087 9.91324 3.4087H20.9279C21.5363 3.4087 22.0294 3.95804 22.0294 4.63567V50.475L16.7203 46.1438C15.9462 45.5136 14.895 45.5136 14.1209 46.1438L8.81176 50.475V4.63567ZM2.20294 8.31655C2.20294 6.96129 3.18923 5.86263 4.40588 5.86263H6.60882V50.475C6.59826 51.4045 7.06014 52.2609 7.80185 52.687C8.54356 53.1131 9.43774 53.0357 10.1115 52.4872L15.4206 48.1192L20.7297 52.4872C21.4034 53.0357 22.2976 53.1131 23.0393 52.687C23.781 52.2609 24.2429 51.4045 24.2324 50.475V5.86263H45.1603C45.7686 5.86263 46.2618 6.41196 46.2618 7.08959V54.9411C45.6534 54.9411 45.1603 55.4905 45.1603 56.1681V58.622C45.1603 59.2996 45.6534 59.849 46.2618 59.849V61.0759C46.2618 61.7536 45.7686 62.3029 45.1603 62.3029H4.40588C3.62237 62.3342 2.86109 62.6013 2.20294 63.0759V59.849C2.81126 59.849 3.30441 59.2996 3.30441 58.622V56.1681C3.30441 55.4905 2.81126 54.9411 2.20294 54.9411V8.31655ZM50.6676 68.4377C50.6676 69.1153 50.1745 69.6647 49.5662 69.6647H4.40588C3.18923 69.6647 2.20294 68.566 2.20294 67.2107C2.33022 65.9187 3.24602 64.8986 4.40588 64.7568H45.1603C46.9853 64.7568 48.4647 63.1088 48.4647 61.0759V10.7705H49.5662C50.1745 10.7705 50.6676 11.3198 50.6676 11.9974V68.4377Z" fill="#8F60A9"/>
<path id="Vector_8" d="M27.5368 35.3097H35.2471C35.8554 35.3097 36.3485 34.7604 36.3485 34.0828C36.3485 33.4051 35.8554 32.8558 35.2471 32.8558H27.5368C26.9284 32.8558 26.4353 33.4051 26.4353 34.0828C26.4353 34.7604 26.9284 35.3097 27.5368 35.3097ZM39.6529 58.622C39.6529 59.2996 40.1461 59.849 40.7544 59.849C41.3627 59.849 41.8559 59.2996 41.8559 58.622V56.1681C41.8559 55.4904 41.3627 54.9411 40.7544 54.9411C40.1461 54.9411 39.6529 55.4904 39.6529 56.1681V58.622ZM35.2471 54.9411C34.6387 54.9411 34.1456 55.4904 34.1456 56.1681V58.622C34.1456 59.2996 34.6387 59.849 35.2471 59.849C35.8554 59.849 36.3485 59.2996 36.3485 58.622V56.1681C36.3485 55.4904 35.8554 54.9411 35.2471 54.9411ZM29.7397 54.9411C29.1314 54.9411 28.6382 55.4904 28.6382 56.1681V58.622C28.6382 59.2996 29.1314 59.849 29.7397 59.849C30.348 59.849 30.8412 59.2996 30.8412 58.622V56.1681C30.8412 55.4904 30.348 54.9411 29.7397 54.9411ZM24.2324 59.849C24.8407 59.849 25.3338 59.2996 25.3338 58.622V56.1681C25.3338 55.4904 24.8407 54.9411 24.2324 54.9411C23.624 54.9411 23.1309 55.4904 23.1309 56.1681V58.622C23.1309 59.2996 23.624 59.849 24.2324 59.849ZM18.725 59.849C19.3333 59.849 19.8265 59.2996 19.8265 58.622V56.1681C19.8265 55.4904 19.3333 54.9411 18.725 54.9411C18.1167 54.9411 17.6235 55.4904 17.6235 56.1681V58.622C17.6235 59.2996 18.1167 59.849 18.725 59.849ZM13.2176 59.849C13.826 59.849 14.3191 59.2996 14.3191 58.622V56.1681C14.3191 55.4904 13.826 54.9411 13.2176 54.9411C12.6093 54.9411 12.1162 55.4904 12.1162 56.1681V58.622C12.1162 59.2996 12.6093 59.849 13.2176 59.849ZM7.7103 59.849C8.31862 59.849 8.81177 59.2996 8.81177 58.622V56.1681C8.81177 55.4904 8.31862 54.9411 7.7103 54.9411C7.10198 54.9411 6.60883 55.4904 6.60883 56.1681V58.622C6.60883 59.2996 7.10198 59.849 7.7103 59.849Z" fill="#8F60A9"/>
</g>
</g>
<path id="Mark.It" d="M56.9542 51.4805V28.0805C56.9542 25.4405 58.7542 24.8405 60.5142 24.8405H62.4342C64.4742 24.8405 65.4342 25.6405 66.1142 27.8405L71.8342 46.3205H71.9142L77.5542 27.8405C78.2342 25.6405 79.1942 24.8405 81.2342 24.8405H83.0742C84.8342 24.8405 86.6342 25.4405 86.6342 28.0805V51.4805C86.6342 53.1205 85.8342 54.6805 83.7142 54.6805C81.5942 54.6805 80.7942 53.1205 80.7942 51.4805V33.6405H80.7142L74.5942 52.7605C74.1542 54.1205 73.1542 54.6805 71.7942 54.6805C70.4342 54.6805 69.4342 54.1205 68.9942 52.7605L62.8742 33.6405H62.7942V51.4805C62.7942 53.1205 61.9942 54.6805 59.8742 54.6805C57.7542 54.6805 56.9542 53.1205 56.9542 51.4805ZM111.262 38.7205V48.5205C111.262 50.9605 111.862 51.5205 111.862 52.4405C111.862 53.7605 110.622 54.6805 109.222 54.6805C106.702 54.6805 105.862 53.0805 105.782 51.2805C103.502 53.8005 100.862 54.6805 97.782 54.6805C94.462 54.6805 91.182 52.4005 91.182 48.7205C91.182 43.8805 94.862 42.5205 99.342 42.0005L102.902 41.6005C104.302 41.4405 105.422 41.1205 105.422 39.4405C105.422 37.7605 103.702 37.0405 101.742 37.0405C97.422 37.0405 97.302 40.2405 94.982 40.2405C93.502 40.2405 92.502 39.2005 92.502 38.0005C92.502 35.6805 95.782 32.7205 101.782 32.7205C107.382 32.7205 111.262 34.5205 111.262 38.7205ZM105.422 46.6005V44.3205C104.782 44.9205 103.582 45.1205 102.902 45.2405L100.782 45.5605C98.342 45.9205 97.022 46.6805 97.022 48.4405C97.022 49.7605 98.262 50.8405 100.262 50.8405C103.462 50.8405 105.422 48.7605 105.422 46.6005ZM116.635 51.7605V35.4405C116.635 33.6805 117.795 32.7205 119.275 32.7205C120.755 32.7205 121.915 33.6805 121.915 35.4405V37.6805H121.995C122.675 35.2405 123.995 32.7205 126.835 32.7205C128.675 32.7205 130.035 33.9205 130.035 35.5605C130.035 37.7205 128.595 38.4805 127.155 38.4805H126.115C123.755 38.4805 122.475 40.1205 122.475 44.9605V51.7605C122.475 53.3205 121.835 54.6805 119.555 54.6805C117.275 54.6805 116.635 53.3205 116.635 51.7605ZM132.604 51.7605V27.7605C132.604 25.8405 133.764 24.8405 135.524 24.8405C137.284 24.8405 138.444 25.8405 138.444 27.7605V41.0405L144.924 33.8405C145.524 33.2005 146.284 32.7205 147.164 32.7205C148.484 32.7205 149.924 33.8805 149.924 35.3605C149.924 36.4005 149.564 36.7205 149.044 37.2805L144.724 41.8005L150.804 49.9605C151.004 50.2405 151.404 50.8805 151.404 51.8405C151.404 53.3205 150.204 54.6805 148.644 54.6805C147.204 54.6805 146.444 53.9605 146.004 53.3205L140.484 45.5205L138.444 47.3205V51.7605C138.444 53.6805 137.284 54.6805 135.524 54.6805C133.764 54.6805 132.604 53.6805 132.604 51.7605ZM154.609 51.1605C154.609 49.3605 156.089 47.8805 157.889 47.8805C159.689 47.8805 161.169 49.3605 161.169 51.1605C161.169 52.9605 159.689 54.4405 157.889 54.4405C156.089 54.4405 154.609 52.9605 154.609 51.1605ZM167.035 51.4005V28.1205C167.035 26.1605 168.315 24.8405 170.315 24.8405C172.315 24.8405 173.595 26.1605 173.595 28.1205V51.4005C173.595 53.3605 172.315 54.6805 170.315 54.6805C168.315 54.6805 167.035 53.3605 167.035 51.4005ZM180.491 49.4805V37.0805H179.491C177.851 37.0805 177.171 36.4405 177.171 35.1605C177.171 33.8805 177.851 33.2405 179.491 33.2405H180.491V29.6805C180.491 27.7605 181.651 26.7605 183.411 26.7605C185.171 26.7605 186.331 27.7605 186.331 29.6805V33.2405H188.091C189.811 33.2405 190.731 33.7605 190.731 35.1605C190.731 36.5605 189.811 37.0805 188.091 37.0805H186.331V48.7605C186.331 49.6405 186.811 50.1205 187.851 50.1205H188.691C189.971 50.1205 190.731 50.8405 190.731 52.0805C190.731 53.7605 189.291 54.6805 186.491 54.6805C182.251 54.6805 180.491 52.9205 180.491 49.4805Z" fill="#D196FF"/>
</g>
</svg>
