<svg width="24" height="48" viewBox="0 0 24 48" fill="none" xmlns="http://www.w3.org/2000/svg">
<rect x="2" y="2" width="20" height="35" rx="10" stroke="#8F60A9" stroke-width="4"/>
<path d="M12 7.35852L12 15.3585" stroke="#8F60A9" stroke-width="4" stroke-linecap="round"/>
<path d="M11.6464 44.3536C11.8417 44.5488 12.1583 44.5488 12.3536 44.3536L15.5355 41.1716C15.7308 40.9763 15.7308 40.6597 15.5355 40.4645C15.3403 40.2692 15.0237 40.2692 14.8284 40.4645L12 43.2929L9.17157 40.4645C8.97631 40.2692 8.65973 40.2692 8.46447 40.4645C8.2692 40.6597 8.2692 40.9763 8.46447 41.1716L11.6464 44.3536ZM11.5 43V44H12.5V43H11.5Z" fill="#8F60A9"/>
<path d="M11.6464 47.3536C11.8417 47.5488 12.1583 47.5488 12.3536 47.3536L15.5355 44.1716C15.7308 43.9763 15.7308 43.6597 15.5355 43.4645C15.3403 43.2692 15.0237 43.2692 14.8284 43.4645L12 46.2929L9.17157 43.4645C8.97631 43.2692 8.65973 43.2692 8.46447 43.4645C8.2692 43.6597 8.2692 43.9763 8.46447 44.1716L11.6464 47.3536ZM11.5 46V47H12.5V46H11.5Z" fill="#8F60A9"/>
</svg>
